<svg width="24" height="24" viewBox="0 0 24 24" fill="none" xmlns="http://www.w3.org/2000/svg">
<path fill-rule="evenodd" clip-rule="evenodd" d="M19 5H17V7H16V5H5C4.44772 5 4 5.44772 4 6V18C4 18.5523 4.44772 19 5 19H16V17H17V19H19C19.5523 19 20 18.5523 20 18V6C20 5.44772 19.5523 5 19 5ZM5 4C3.89543 4 3 4.89543 3 6V18C3 19.1046 3.89543 20 5 20H19C20.1046 20 21 19.1046 21 18V6C21 4.89543 20.1046 4 19 4H5ZM7.571 16.5283L7.87931 15.4988L8.56638 13.2046H7.49115L7.13333 13.7025L6.89392 14.0356H6.48372H6.25H5.20155L5.47839 13.0243L5.76178 11.9892L5.47839 10.954L5.20155 9.94278H6.25H6.48372H6.89392L7.13333 10.2759L7.49115 10.7737H8.56638L7.87931 8.47951L7.571 7.45H8.64568H9.06096H9.51431L9.74727 7.83893L11.5051 10.7737H13.3518C14.0457 10.7737 14.55 11.3514 14.55 11.9892C14.55 12.6279 14.0452 13.2046 13.3518 13.2046H11.5051L9.74727 16.1394L9.51431 16.5283H9.06096H8.64568H7.571ZM11.0517 12.4046H13.3518C13.5716 12.4046 13.75 12.2185 13.75 11.9892C13.75 11.7603 13.5716 11.5737 13.3518 11.5737H11.0517L9.90062 9.65187L9.06096 8.25H8.64568L8.70884 8.4609L8.88527 9.05L9.16293 9.97717L9.40148 10.7737L9.64107 11.5737H8.80596H7.30691H7.08094L6.48372 10.7428H6.25L6.28843 10.8831L6.46901 11.5428L6.53692 11.7908L6.5767 11.9361L6.59122 11.9892L6.5767 12.0422L6.53692 12.1875L6.46901 12.4356L6.28843 13.0952L6.25 13.2356H6.48372L7.08094 12.4046H7.30692H8.80596H9.64107L9.40148 13.2046L9.16293 14.0012L8.88527 14.9283L8.70884 15.5174L8.64568 15.7283H9.06096L9.90062 14.3265L11.0517 12.4046ZM17 16H16V14H17V16ZM17 10.291H16V8.29102H17V10.291ZM17 13H16V11H17V13Z" fill="#EBEBEB"/>
</svg>

