<svg width="24" height="24" viewBox="0 0 24 24" fill="none" xmlns="http://www.w3.org/2000/svg">
<path d="M18.9958 18.8207L17.9895 6.75329C17.9686 6.49844 17.7673 6.30619 17.5283 6.30619H15.4403C15.4235 4.29421 13.8847 2.66675 11.9979 2.66675C10.1111 2.66675 8.57233 4.29421 8.55556 6.30619H6.46751C6.22851 6.30619 6.02725 6.50292 6.00629 6.75329L5 18.8207C5 18.8341 5 18.8475 5 18.8654C5 20.2246 6.16981 21.3334 7.61216 21.3334H16.3878C17.826 21.3334 19 20.2291 19 18.8654C19 18.8475 19 18.8341 18.9958 18.8207ZM12.0021 3.65038C13.3816 3.65038 14.5052 4.83968 14.522 6.30619H9.47799C9.49476 4.83968 10.6184 3.65038 12.0021 3.65038ZM16.3878 20.3453H7.61216C6.68973 20.3453 5.93501 19.6925 5.92243 18.8833L6.88679 7.28982H8.55136V8.88152C8.55136 9.15425 8.75681 9.37333 9.01258 9.37333C9.26834 9.37333 9.4738 9.15425 9.4738 8.88152V7.28982H14.5178V8.88152C14.5178 9.15425 14.7233 9.37333 14.979 9.37333C15.2348 9.37333 15.4403 9.15425 15.4403 8.88152V7.28982H17.1048L18.0692 18.8833C18.065 19.6925 17.3103 20.3453 16.3878 20.3453Z" fill="#EBEBEB"/>
<line x1="9" y1="13.5" x2="15" y2="13.5" stroke="#EBEBEB" stroke-linejoin="round"/>
<line x1="9" y1="16.5" x2="13" y2="16.5" stroke="#EBEBEB" stroke-linejoin="round"/>
</svg>

