<svg width="32" height="32" viewBox="0 0 32 32" fill="none" xmlns="http://www.w3.org/2000/svg">
<path fill-rule="evenodd" clip-rule="evenodd" d="M5.33398 16.0002C5.33398 10.1068 10.1073 5.3335 16.0007 5.3335C21.8887 5.3335 26.6673 10.1068 26.6673 16.0002C26.6673 21.8891 21.8887 26.6668 16.0007 26.6668C10.1073 26.6668 5.33398 21.8891 5.33398 16.0002ZM25.7784 16.0003C25.7784 10.6092 21.3917 6.22249 16.0006 6.22249C10.6095 6.22249 6.22282 10.6092 6.22282 16.0003C6.22282 21.3914 10.6095 25.778 16.0006 25.778C21.3917 25.778 25.7784 21.3914 25.7784 16.0003Z" fill="#EBEBEB"/>
<path d="M16.0007 5.1335C9.99686 5.1335 5.13398 9.99637 5.13398 16.0002H5.53398C5.53398 10.2173 10.2178 5.5335 16.0007 5.5335V5.1335ZM26.8673 16.0002C26.8673 9.99631 21.999 5.1335 16.0007 5.1335V5.5335C21.7783 5.5335 26.4673 10.2174 26.4673 16.0002H26.8673ZM16.0007 26.8668C21.9991 26.8668 26.8673 21.9995 26.8673 16.0002H26.4673C26.4673 21.7786 21.7782 26.4668 16.0007 26.4668V26.8668ZM5.13398 16.0002C5.13398 21.9995 9.99681 26.8668 16.0007 26.8668V26.4668C10.2178 26.4668 5.53398 21.7786 5.53398 16.0002H5.13398ZM16.0006 6.42249C21.2812 6.42249 25.5784 10.7196 25.5784 16.0003H25.9784C25.9784 10.4987 21.5022 6.02249 16.0006 6.02249V6.42249ZM6.42282 16.0003C6.42282 10.7196 10.7199 6.42249 16.0006 6.42249V6.02249C10.499 6.02249 6.02282 10.4987 6.02282 16.0003H6.42282ZM16.0006 25.578C10.7199 25.578 6.42282 21.2809 6.42282 16.0003H6.02282C6.02282 21.5018 10.499 25.9781 16.0006 25.9781V25.578ZM25.5784 16.0003C25.5784 21.2809 21.2812 25.578 16.0006 25.578V25.9781C21.5022 25.9781 25.9784 21.5018 25.9784 16.0003H25.5784Z" fill="#EBEBEB"/>
<path fill-rule="evenodd" clip-rule="evenodd" d="M10.666 15.9417L11.3753 15.2142L14.4994 18.4219L21.109 11.6353L21.8175 12.3627L14.4994 19.8777L10.666 15.9417Z" fill="#EBEBEB" stroke="#EBEBEB" stroke-width="0.2"/>
</svg>
